<svg width="202" height="38" viewBox="0 0 202 38" fill="none" xmlns="http://www.w3.org/2000/svg">
<path d="M37.4431 0.699249H0.841553V37.3007H37.4431V0.699249Z" fill="white"/>
<path d="M0 0H19C19 10.4936 10.4932 19 0 19V0ZM38 0H19C19 10.4936 27.5067 19 38 19V0ZM0 38H19C19 27.5064 10.4932 19 0 19V38ZM38 19C27.5067 19 19 27.5064 19 38H38V19Z" fill="#E62F22"/>
<path d="M168.876 36V12.5275H173.966L174.142 18.2857L173.615 18.022C173.878 16.7619 174.332 15.6923 174.975 14.8132C175.648 13.9048 176.453 13.2161 177.389 12.7473C178.354 12.2491 179.408 12 180.549 12C182.538 12 184.147 12.5714 185.376 13.7143C186.604 14.8278 187.38 16.3663 187.702 18.3297H186.956C187.219 16.9524 187.672 15.8095 188.316 14.9011C188.96 13.9634 189.764 13.2454 190.729 12.7473C191.724 12.2491 192.836 12 194.065 12C195.674 12 197.063 12.3516 198.233 13.0549C199.404 13.7289 200.296 14.7253 200.91 16.044C201.554 17.3626 201.876 18.989 201.876 20.9231V36H196.259V22.3736C196.259 20.4396 195.922 18.989 195.249 18.022C194.606 17.0549 193.611 16.5714 192.265 16.5714C191.358 16.5714 190.583 16.8059 189.94 17.2747C189.296 17.7436 188.799 18.4322 188.448 19.3407C188.126 20.2198 187.965 21.2894 187.965 22.5494V36H182.743V22.5494C182.743 20.6154 182.45 19.1355 181.865 18.1099C181.28 17.0842 180.271 16.5714 178.837 16.5714C177.93 16.5714 177.155 16.8059 176.511 17.2747C175.897 17.7436 175.4 18.4322 175.019 19.3407C174.668 20.2198 174.493 21.2894 174.493 22.5494V36H168.876Z" fill="white"/>
<path d="M62.8559 36.4265C59.6519 36.4265 56.7969 35.6969 54.2908 34.2376C51.8164 32.7466 49.8654 30.7164 48.4379 28.1468C47.0421 25.5455 46.3442 22.5636 46.3442 19.201C46.3442 15.8383 47.0421 12.8722 48.4379 10.3027C49.8654 7.7014 51.8164 5.67113 54.2908 4.21188C56.7651 2.7209 59.6043 1.97542 62.8084 1.97542C64.9655 1.97542 66.9958 2.37195 68.8991 3.16502C70.8025 3.92637 72.4838 4.98909 73.9431 6.35318C75.4341 7.71726 76.5761 9.30339 77.3692 11.1116L72.3252 13.1577C71.7542 11.9523 70.977 10.8896 69.9936 9.96959C69.0419 9.01789 67.9475 8.28829 66.7103 7.78071C65.4731 7.27314 64.1724 7.01936 62.8084 7.01936C60.7146 7.01936 58.843 7.54279 57.1934 8.58969C55.5755 9.63649 54.2907 11.0799 53.3391 12.9198C52.4191 14.728 51.9591 16.8217 51.9591 19.201C51.9591 21.5802 52.4191 23.6898 53.3391 25.5297C54.2907 27.3696 55.5914 28.813 57.241 29.8599C58.9223 30.9067 60.8257 31.4301 62.9511 31.4301C64.3469 31.4301 65.6476 31.1605 66.853 30.6212C68.0902 30.0502 69.1847 29.273 70.1363 28.2896C71.1198 27.3062 71.897 26.1641 72.468 24.8635L77.5119 26.9096C76.7188 28.7813 75.5927 30.4467 74.1334 31.906C72.6742 33.3335 70.977 34.4438 69.0419 35.2369C67.1068 36.03 65.0448 36.4265 62.8559 36.4265ZM83.4436 23.1981C83.4436 20.6285 83.9353 18.5189 84.9187 16.8693C85.9021 15.2197 87.1711 13.9984 88.7255 13.2053C90.3116 12.3805 91.9612 11.9681 93.6742 11.9681V17.0597C92.215 17.0597 90.835 17.2659 89.5344 17.6783C88.2655 18.0589 87.2345 18.6934 86.4414 19.5816C85.6484 20.4699 85.2518 21.6436 85.2518 23.1029L83.4436 23.1981ZM79.9224 35.8555V12.0633H85.2518V35.8555H79.9224ZM105.917 36.4265C103.601 36.4265 101.539 35.9031 99.7307 34.8562C97.9547 33.7776 96.5427 32.3025 95.4958 30.4309C94.4807 28.5592 93.9731 26.4021 93.9731 23.9594C93.9731 21.5167 94.4966 19.3596 95.5434 17.4879C96.5903 15.6163 98.0177 14.157 99.8257 13.1102C101.666 12.0316 103.76 11.4923 106.107 11.4923C108.233 11.4923 110.152 12.0474 111.865 13.1577C113.578 14.2363 114.926 15.8066 115.91 17.8686C116.925 19.9306 117.433 22.3891 117.433 25.2442H98.7317L99.4457 24.578C99.4457 26.0373 99.7627 27.3062 100.397 28.3847C101.032 29.4316 101.872 30.2405 102.919 30.8115C103.966 31.3826 105.124 31.6681 106.393 31.6681C107.852 31.6681 109.058 31.3508 110.009 30.7164C110.961 30.0502 111.707 29.1937 112.246 28.1468L116.957 30.1454C116.291 31.4143 115.434 32.5246 114.387 33.4763C113.372 34.428 112.151 35.1576 110.723 35.6652C109.327 36.1727 107.725 36.4265 105.917 36.4265ZM99.7787 21.8181L99.0167 21.1519H112.436L111.722 21.8181C111.722 20.5175 111.437 19.4547 110.866 18.63C110.295 17.7734 109.565 17.139 108.677 16.7266C107.82 16.2825 106.916 16.0604 105.965 16.0604C105.013 16.0604 104.061 16.2825 103.11 16.7266C102.158 17.139 101.365 17.7734 100.73 18.63C100.096 19.4547 99.7787 20.5175 99.7787 21.8181ZM134.124 35.8555L133.886 31.3826V23.6263C133.886 22.0084 133.712 20.6602 133.363 19.5816C133.046 18.4713 132.506 17.6307 131.745 17.0597C131.015 16.4569 130.032 16.1556 128.795 16.1556C127.653 16.1556 126.653 16.3935 125.797 16.8693C124.94 17.3452 124.211 18.0907 123.608 19.1058L118.945 17.3928C119.452 16.3459 120.119 15.3784 120.943 14.4901C121.8 13.5701 122.863 12.8405 124.132 12.3012C125.432 11.7619 126.987 11.4923 128.795 11.4923C131.111 11.4923 133.046 11.9523 134.6 12.8722C136.154 13.7605 137.297 15.0453 138.026 16.7266C138.787 18.4079 139.168 20.4382 139.168 22.8174L139.025 35.8555H134.124ZM127.272 36.4265C124.417 36.4265 122.196 35.792 120.61 34.5231C119.056 33.2542 118.279 31.4619 118.279 29.1461C118.279 26.6717 119.103 24.7842 120.753 23.4836C122.434 22.1829 124.766 21.5326 127.748 21.5326H134.124V25.6249H129.461C127.336 25.6249 125.845 25.9262 124.988 26.529C124.132 27.1 123.703 27.9248 123.703 29.0033C123.703 29.9233 124.068 30.6529 124.798 31.1922C125.559 31.6998 126.606 31.9536 127.938 31.9536C129.144 31.9536 130.191 31.6839 131.079 31.1446C131.967 30.6054 132.649 29.8916 133.125 29.0033C133.633 28.1151 133.886 27.1158 133.886 26.0055H135.457C135.457 29.2413 134.806 31.795 133.506 33.6666C132.205 35.5065 130.127 36.4265 127.272 36.4265ZM152.131 36.4265C149.625 36.4265 147.705 35.8079 146.373 34.5707C145.072 33.3018 144.422 31.4936 144.422 29.1461V4.64014H149.704V28.1468C149.704 29.2571 149.958 30.0978 150.465 30.6688C151.005 31.2398 151.782 31.5253 152.797 31.5253C153.114 31.5253 153.463 31.4619 153.844 31.335C154.225 31.2081 154.653 30.9702 155.129 30.6212L157.08 34.6659C156.255 35.2369 155.43 35.6652 154.605 35.9507C153.78 36.2679 152.956 36.4265 152.131 36.4265ZM140.473 16.6314V12.0633H156.128V16.6314H140.473ZM159.772 35.8555V12.0633H165.054V35.8555H159.772ZM162.437 7.54278C161.58 7.54278 160.835 7.24142 160.2 6.63868C159.597 6.00422 159.296 5.25874 159.296 4.40222C159.296 3.5457 159.597 2.81607 160.2 2.21334C160.835 1.6106 161.58 1.30923 162.437 1.30923C163.293 1.30923 164.023 1.6106 164.625 2.21334C165.26 2.81607 165.577 3.5457 165.577 4.40222C165.577 5.25874 165.26 6.00422 164.625 6.63868C164.023 7.24142 163.293 7.54278 162.437 7.54278Z" fill="white"/>
</svg>
