<svg width="16" height="16" viewBox="0 0 16 16" fill="none" xmlns="http://www.w3.org/2000/svg">
<path d="M15.1965 13.9035L12.2237 10.9307C13.1246 9.75122 13.6188 8.32061 13.619 6.81099C13.619 4.99176 12.9104 3.28129 11.6238 1.99491C10.3375 0.708537 8.62721 0 6.80775 0C4.98852 0 3.27805 0.708537 1.99167 1.99491C-0.66389 4.6507 -0.66389 8.97174 1.99167 11.6271C3.27805 12.9137 4.98852 13.6222 6.80775 13.6222C8.31736 13.622 9.74798 13.1279 10.9274 12.2269L13.9003 15.1997C14.0791 15.3788 14.3139 15.4683 14.5484 15.4683C14.7829 15.4683 15.0177 15.3788 15.1965 15.1997C15.5546 14.8419 15.5546 14.2614 15.1965 13.9035ZM3.28789 10.3309C1.34714 8.3901 1.34736 5.23212 3.28789 3.29114C4.22806 2.3512 5.47818 1.83333 6.80775 1.83333C8.13754 1.83333 9.38744 2.3512 10.3276 3.29114C11.2678 4.2313 11.7856 5.48143 11.7856 6.81099C11.7856 8.14079 11.2678 9.39069 10.3276 10.3309C9.38744 11.271 8.13754 11.7889 6.80775 11.7889C5.47818 11.7889 4.22806 11.271 3.28789 10.3309Z" fill="white"/>
</svg>
