<svg width="21" height="21" viewBox="0 0 21 21" fill="none" xmlns="http://www.w3.org/2000/svg">
<path d="M14.3746 20.9943C13.595 21.0526 12.8685 20.7716 12.3487 20.2518C11.8823 20.064 9.27586 13.6105 8.97582 13.0924L13.9609 8.10724C14.2579 7.81026 14.2526 7.33826 13.9609 7.04658C13.664 6.7496 13.1973 6.7496 12.9003 7.04658L7.91516 12.0317L1.54058 9.19975C0.52236 8.74364 -0.0768829 7.74134 0.0079555 6.62763C0.0981026 5.51923 0.851194 4.61769 1.92244 4.33133L17.7369 0.0886528C18.6437 -0.14997 19.5824 0.0992697 20.2453 0.762182C20.9029 1.41979 21.1522 2.35848 20.9136 3.26533L16.6709 19.0798C16.3846 20.1511 15.483 20.9041 14.3746 20.9943Z" fill="#E62F22"/>
</svg>
